<?xml version="1.0" encoding="utf-8"?>
<!-- Generator: Adobe Illustrator 23.0.0, SVG Export Plug-In . SVG Version: 6.00 Build 0)  -->
<svg version="1.1" id="Camada_1" xmlns="http://www.w3.org/2000/svg" xmlns:xlink="http://www.w3.org/1999/xlink" x="0px" y="0px"
	 viewBox="0 0 216.67 90.28" style="enable-background:new 0 0 216.67 90.28;" xml:space="preserve">
<style type="text/css">
	.st0{fill:#FFFFFF;}
</style>
<path class="st0" d="M34.41,63.62V31.03c0-3.43-1.42-6.12-4.26-8.06l-4.14,4.14l-1.79-1.79l11.87-11.87
	c4.33,2.54,6.5,7.43,6.5,14.67v36.06l3.25,3.58l4.03-4.14l1.9,1.9L40.35,76.83l-7.62-7.5l-3.7,3.58l-2.02-1.9L34.41,63.62z
	 M97.69,23.52v40.32c0.37-0.07,0.9-0.13,1.57-0.17c0.67-0.04,1.49-0.06,2.46-0.06v2.58c-4.56,0.45-8.4,1.42-11.54,2.91
	c-3.29,1.72-6.31,4.29-9.07,7.73c-0.6-0.75-1.23-1.49-1.9-2.24c-0.67-0.75-1.34-1.53-2.02-2.35c-1.64-1.87-3.32-2.8-5.04-2.8
	c-1.64,0-3.29,0.9-4.93,2.69l-1.9-2.35c0.97-0.82,2.18-1.72,3.64-2.69c1.46-0.97,3.15-2.05,5.1-3.25c0.97-0.37,2.09-0.56,3.36-0.56
	c3.43,0,6.53,1.49,9.3,4.48c0.45-0.3,0.93-0.6,1.46-0.9c0.52-0.3,1.08-0.6,1.68-0.9V43.46L77.53,55l-8.96-6.83l-3.92,3.47
	l-1.79-2.02l5.38-4.93V23.97c-0.52,0-1.03-0.02-1.51-0.06c-0.49-0.04-0.95-0.09-1.4-0.17v-2.58c1.34,0.08,2.39,0.11,3.14,0.11
	c0.75,0,1.19,0,1.34,0c7.76,0,14.15-2.61,19.15-7.84l8.51,6.5l3.14-2.91l1.79,2.02L97.69,23.52z M76.08,23.3v19.71l5.71,4.48
	l8.06-7.73V24.75l-5.82-4.26C81.27,22.37,78.62,23.3,76.08,23.3z M130.51,66.31v-9.3h-22.18v-7.95l24.98-35.62l5.94,5.82l3.47-3.02
	l1.68,2.02l-5.94,4.93v31.36l9.18-0.11v2.69l-9.18-0.11v9.97l2.58,2.24l3.47-3.02l1.68,2.02l-10.42,8.62l-6.38-6.05l-3.58,2.8
	l-1.68-2.02L130.51,66.31z M130.62,22.18l-14.45,20.16v12.1h14.45V22.18z M175.31,66.31v-9.3h-22.18v-7.95l24.98-35.62l5.94,5.82
	l3.47-3.02l1.68,2.02l-5.94,4.93v31.36l9.18-0.11v2.69l-9.18-0.11v9.97l2.58,2.24l3.47-3.02l1.68,2.02l-10.42,8.62l-6.38-6.05
	l-3.58,2.8l-1.68-2.02L175.31,66.31z M175.42,22.18l-14.45,20.16v12.1h14.45V22.18z"/>
</svg>
