<svg id="Camada_1" data-name="Camada 1" xmlns="http://www.w3.org/2000/svg" viewBox="0 0 45.02 20"><defs><style>.cls-1{fill:#040006;}.cls-2{fill:#fff;}.cls-3{fill:#211915;}</style></defs><title>Logo y-44</title><rect class="cls-1" width="45.02" height="20"/><path class="cls-2" d="M38.35,11.5h0l-.31.19V12l.34-.39v2.76H34.8v-.06l.07-.06V14.2l-.07-.07h-.06l-.25.25h-.58v-.12l.06.06H34v-.19a1,1,0,0,1-.76-.32v-.32h-.33c0,.13-.1.19-.31.19v.13c0,.06.17.15.51.26l.07.31H26l-.13-.12v-.13l.19-.26v-.06c-.12,0-.19,0-.19-.13v-.26c0-.09.07-.13.19-.13v-.37c-.12,0-.19-.26-.19-.78v-.31l.07-.27-.07-.25v-.84l.19-.19h.14c.72.26,1.08.47,1.08.64h.07l.13-.12h-.2l.07-.33h-.2l-.31-.06v-.13h6.41c.08,0,.12.19.12.58l.19.12.2-.12h.38l.2.12h.19v-.06c-.11,0-.19-.1-.25-.31l-.08.06-.64-.14v-.12l.14-.13h3.53v.33h.12l.13-.14-.07-.19h.92ZM26,9.83,31.19,3.7h.21l0,.19L31.3,4h.07l.23-.11c0-.17-.06-.26-.19-.27A.91.91,0,0,1,31.78,3l.13.14.82.06,0,.13h.23v.06l.07,0,.12-.07.12,0v.12l.32,0,.11.07.27,0,.59.17v.06l.35,0,.25.09.08-.07h.07l0-.06h.21c0,.12,0,.18.14.19l.07,0,.14-.17a3.75,3.75,0,0,1-.59.77l-.06-.07H35v.06l.16,0A28.24,28.24,0,0,1,33,7.27L30.81,9.83Zm.33,1.28-.2.08c.09.19.18.29.27.31h.06v-.25Zm.52,2.45h-.39v.06l.25.12.26-.06ZM27,11.83c-.1.29-.23.43-.38.43v.08a1,1,0,0,1,.26.5l.12-.12v-.58l.13-.19Zm-.26,2h-.06l.14.12h.06Zm1.48-.25c-.26,0-.39-.07-.39-.2l.07-.38c-.13,0-.19-.05-.19-.14h-.07l-.12.33c.08.21.17.32.25.32v.07l-.06.06v.06c.17,0,.26.05.26.13A.35.35,0,0,0,28.2,13.56Zm-.45-2.7h-.06v.25h.19V11Zm.9,3h-.2l-.06.19.06.07h.08l.12-.2Zm.45-1.41h-.2l-.12.13v.06l.12.13c0-.17.07-.26.2-.26Zm1.08,1.09V13c-.08,0-.16.21-.25.64v.06l.13.13h.2Zm-.12-6.95H30v.13l.23,0Zm0-.9v.13l.12.13h.08V5.84l-.05-.19Zm.75,5.8-.44-.19-.14.19.14.51h.06c.11-.3.24-.45.38-.45ZM30.42,8.1l.14.14h.06l0-.13Zm.15,4.49-.06-.06h-.06v.19Zm.64.45-.31-.12h-.14a.44.44,0,0,0,.39.25l.06-.07Zm-.27-8.43h-.08l.19.33.21,0C31.17,4.75,31.06,4.63,30.94,4.61Zm0,6.83v.06c.06.17.12.26.19.26v-.14Zm.64,1.79h-.2l-.13.13v.06h.2l.13-.13ZM31.34,5V5l.3,0V5Zm.14,7h-.14v.39h.14Zm.37-.58h-.19v.13h.07ZM38.24,1l-.15.16c-.62.85-1,1.27-1.25,1.25,0,.26-.11.38-.26.37l-.3,0V2.62l-.21,0v.13l-.38,0A.88.88,0,0,1,35,3l0,.13.36.09.16-.12.29.15c.29,0,.45,0,.46-.15h.14v.06l-.54.68,0-.09-.59,0v.07l-.09.05-.33,0-.34-.09v.06h0l0-.2-.39,0h-.16l-.26-.09h-.12l-.31-.22-.12,0h-.18c0-.18-.24-.32-.63-.43L32.08,3V2.87H32L31.78,3c0-.38.28-.58.74-.59l-.08-.06c0-.11.12-.16.31-.16L32.63,2V1.88A7.79,7.79,0,0,1,33.43,1ZM32.49,11.37h-.06a.64.64,0,0,1-.44.13l.06.06v.06l-.2.27h.2l.44-.33Zm-.15-6.71v.07l.14.13V4.68Zm.16-.24-.15.12V4.6h.08l.31-.05V4.5Zm.44,6.63h-.06v.06l.13.14h.06v-.06ZM34.42,2c0,.15-.25.26-.7.34l-.81-.06,0,.06c.2,0,.3.11.29.22v.06l-.09.05.42.3h.14L34,2.88l0,.2c.2,0,.31-.1.34-.36l.45,0V2.69c0-.11-.08-.18-.28-.21l0-.51ZM33.39,13h-.12l-.26.25v.07h.06v-.13h.07l.25.19Zm-.17-8.95v.12l.21,0V4.11Zm.53-1.42-.15.11h-.08l-.14-.14,0-.25Zm.55,9.73h-.58l-.2.13c.06.26.13.39.2.39h.06l-.06-.33.19-.13H34l.33.07Zm.37,2.54h.07a.42.42,0,0,1,0-.18h2.84c-.34.12-.52.26-.52.42v.06h.07c0-.17.19-.25.51-.25v-.23h.64v1.12c-.08.17-.19.25-.31.25l.12.13.19-.07V18h-.12c0-.2,0-.31-.13-.31l-.39-.19v.07q0,.09.39.18l.06.33v.06l-.18.19H37.8L37.42,18v.08l.31.38-.06.18h.06c.26,0,.39-.08.39-.25h.19v.52l-.12.12H37.8l-.19-.12-.13.12H37c-.08,0-.12-.06-.12-.19h-.39c0,.13,0,.19-.13.19h-.31l-.39-.31h-.06V19h-.77v-.19h-.39v.07h.14V19h-.26l-.13-.12v-.07l.13-.2v-.31h-.13v-.58l.25-.37c0-.14-.06-.2-.18-.2l-.07-.07v-.45l.13-.12h.26l.19.12H35l-.07-.06-.31-.13-.14-.37h-.12v.31h-.13V14.75h.33A.16.16,0,0,1,34.67,14.94ZM34.34,1.36v.08l.12.14.16-.12,0-.2-.08-.06Zm.2,2v.12l.13.13.07-.07V3.52l-.13-.12Zm0,0v.12l.13.13.07-.07V3.52l-.13-.12Zm.51,3.86-.2.12v.08l.07.06.19-.06v-.2ZM35,9.05v.07l.12.13V9.19Zm.12-3.4v.2l.13.13h.06c.43-.08.64-.17.64-.25h-.51Zm0,2.31c.08,0,.12.09.13.27h.06l.06-.07h.07c0,.09.11.17.32.25l.33-.12V8.23c-.09,0-.14-.07-.14-.19l-.38.06c-.13,0-.2-.13-.2-.39A.37.37,0,0,0,35.11,8Zm.13,1-.06.26.12.25h.06V9.05Zm.26-7.72-.12.2h.06l.19-.07Zm0,0-.12.2h.06l.19-.07Zm.4,15.21-.07,0v.13l.22,0Zm0-.89v.12l.13.14H36v-.06l0-.19ZM37,8.8l-.19.13H36.2l-.12.12a.91.91,0,0,1,.5.27h.08c0-.15.14-.28.43-.39Zm-.77-7v.13l.07.06h.12V1.92l-.12-.13Zm0,0v.13l.07.06h.12V1.92l-.12-.13Zm0,3.68h.19V5.4l-.06-.06Zm.26,1.34c0,.13-.09.2-.26.2l.13.12h.06L36.52,7v-.2ZM36.27,18l.13.14h.07l0-.12Zm.31-13.53v.13H37V4.44Zm.84.71c0,.14-.15.27-.45.38v.06l.51.14.19-.14-.19-.44Zm-.06-1.72L37,3.87v.19l.27-.19h.06l.06.07a.63.63,0,0,1,.13-.44V3.43Zm-.2-.17.14.14h.12V3.26Zm0,0,.14.14h.12V3.26Zm.14,1.57h-.14c0,.06.09.13.26.18h.06Zm.12-.64v.06h.13V4.06ZM37.94,8h-.13v.19h.25V8.16Z" transform="translate(0 0)"/><path class="cls-2" d="M44.4,11.5h0l-.32.19V12l.34-.39v2.76H40.85v-.06l.08-.06V14.2l-.08-.07h-.06l-.25.25H40v-.12l.06.06h.07v-.19a1,1,0,0,1-.77-.32v-.32H39c0,.13-.11.19-.32.19v.13c0,.06.17.15.52.26l.06.31H32.07L32,14.26v-.13l.18-.26v-.06c-.12,0-.18,0-.18-.13v-.26c0-.09.06-.13.18-.13v-.37q-.18,0-.18-.78v-.31l.06-.27L32,11.31v-.84l.18-.19h.14c.72.26,1.08.47,1.08.64h.08l.12-.12h-.2l.08-.33h-.2l-.32-.06v-.13h6.41c.09,0,.13.19.13.58l.19.12.2-.12h.37l.2.12h.19v-.06c-.11,0-.19-.1-.25-.31l-.08.06-.63-.14v-.12l.13-.13H43.3v.33h.12l.13-.14-.06-.19h.91ZM32,9.83,37.24,3.7h.21l0,.19L37.35,4h.08l.22-.11q0-.25-.18-.27A.85.85,0,0,1,37.83,3l.14.14.81.06,0,.13H39v.06l.08,0,.11-.07.12,0v.12l.33,0,.1.07.27,0,.59.17v.06l.35,0,.26.09.07-.07h.08V3.82h.21c0,.12,0,.18.14.19l.08,0,.13-.17a3.4,3.4,0,0,1-.59.77l-.06-.07h-.16v.06l.16,0A28.24,28.24,0,0,1,39,7.27c-.81,1-1.54,1.79-2.18,2.56Zm.38,1.28-.2.08c.08.19.17.29.26.31h.06v-.25Zm.51,2.45h-.39v.06l.25.12.27-.06ZM33,11.83c-.11.29-.24.43-.39.43v.08a1,1,0,0,1,.26.5l.13-.12v-.58l.12-.19Zm-.27,2h-.06l.14.12h.06Zm1.48-.25c-.26,0-.38-.07-.38-.2l.06-.38c-.13,0-.19-.05-.19-.14h-.06l-.13.33c.09.21.17.32.25.32v.07l-.06.06v.06c.18,0,.26.05.26.13A.35.35,0,0,0,34.25,13.56Zm-.45-2.7h-.06v.25h.19V11Zm.91,3H34.5l-.06.19.06.07h.08l.13-.2Zm.45-1.41H35l-.13.13v.06l.13.13c0-.17.06-.26.2-.26Zm1.08,1.09V13c-.09,0-.17.21-.26.64v.06l.13.13h.2Zm-.13-6.95H36l0,.13.23,0Zm0-.9v.13l.12.13h.08V5.84l0-.19Zm.75,5.8-.44-.19-.13.19.13.51h.07c.11-.3.23-.45.37-.45ZM36.47,8.1l.14.14h.07l0-.13Zm.15,4.49-.06-.06H36.5v.19Zm.64.45L37,12.92h-.14a.44.44,0,0,0,.39.25l.06-.07ZM37,4.61h-.08l.19.33.21,0C37.22,4.75,37.11,4.63,37,4.61Zm0,6.83v.06c.06.17.12.26.19.26v-.14Zm.64,1.79h-.2l-.13.13v.06h.21l.12-.13ZM37.39,5V5l.3,0V5Zm.14,7h-.14v.39h.14Zm.37-.58h-.18v.13h.06ZM44.29,1l-.15.16c-.62.85-1,1.27-1.24,1.25,0,.26-.12.38-.27.37l-.3,0V2.62l-.21,0v.13l-.38,0A.88.88,0,0,1,41,3v.13l.35.09.16-.12.29.15c.29,0,.45,0,.46-.15h.14v.06l-.54.68,0-.09-.59,0v.07l-.09.05-.33,0-.33-.09v.06h0l0-.2-.39,0H40l-.26-.09H39.6l-.32-.22-.12,0H39c0-.18-.24-.32-.62-.43L38.13,3V2.87h-.07L37.83,3c0-.38.29-.58.74-.59l-.08-.06c0-.11.13-.16.32-.16L38.68,2V1.88A8.89,8.89,0,0,1,39.48,1ZM38.54,11.37h-.06a.64.64,0,0,1-.44.13l.07.06v.06l-.21.27h.21l.43-.33Zm-.15-6.71v.07l.14.13V4.68Zm.17-.24-.15.12,0,.06h.08l.31-.05V4.5ZM39,11.05h-.07v.06l.13.14h.06v-.06ZM40.48,2c0,.15-.26.26-.71.34L39,2.23v.06c.2,0,.29.11.28.22v.06l-.08.05.41.3h.14l.39-.05,0,.2c.2,0,.32-.1.34-.36l.45,0V2.69q0-.16-.27-.21L40.63,2ZM39.45,13h-.13l-.26.25v.07h.06v-.13h.08l.25.19Zm-.18-8.95v.12l.21,0V4.11Zm.53-1.42-.15.11h-.08l-.14-.14,0-.25Zm.55,9.73h-.58l-.2.13c.06.26.13.39.2.39h.07l-.07-.33.19-.13H40l.33.07ZM44,2.88l-.33.25h.06l.58-.31.06.06v7H40.27v-3l3.48-4.32ZM40.73,14.94h.06a.3.3,0,0,1,0-.18h2.83q-.51.18-.51.42v.06h.06c0-.17.19-.25.51-.25v-.23h.64v1.12c-.08.17-.18.25-.31.25l.13.13.18-.07V18h-.12c0-.2,0-.31-.13-.31l-.39-.19v.07q0,.09.39.18l.07.33v.06l-.19.19h-.14L43.47,18v.08l.32.38-.07.18h.07c.26,0,.39-.08.39-.25h.18v.52l-.12.12h-.39l-.19-.12-.12.12h-.46C43,19,43,19,43,18.82h-.39c0,.13,0,.19-.12.19h-.32l-.39-.31h-.06V19h-.77v-.19h-.38v.07h.13V19H40.4l-.13-.12v-.07l.13-.2v-.31h-.13v-.58l.26-.37c0-.14-.07-.2-.19-.2l-.07-.07v-.45l.13-.12h.26l.19.12H41L41,16.58l-.32-.13-.13-.37H40.4v.31h-.13V14.75h.33A.17.17,0,0,1,40.73,14.94ZM40.39,1.36v.08l.12.14.17-.12,0-.2-.07-.06Zm.2,2v.12l.14.13.06-.07V3.52l-.13-.12Zm0,0v.12l.14.13.06-.07V3.52l-.13-.12Zm.51,3.86-.2.12v.08l.08.06.19-.06v-.2ZM41,9.05v.07l.13.13V9.19Zm.13-3.4v.2l.12.13h.06c.43-.08.64-.17.64-.25h-.51Zm0,2.31q.11,0,.12.27h.06l.07-.07h.06c0,.09.11.17.33.25l.32-.12V8.23C42,8.23,42,8.16,42,8l-.37.06c-.14,0-.2-.13-.2-.39A.33.33,0,0,0,41.17,8Zm.12,1-.06.26.12.25h.07V9.05Zm.26-7.72-.12.2h.06l.19-.07Zm0,0-.12.2h.06l.19-.07ZM42,16.42l-.08,0v.13l.22,0Zm-.05-.89,0,.12.13.14h.07l0-.06,0-.19ZM43,8.8l-.19.13h-.57l-.13.12a.88.88,0,0,1,.5.27h.08c0-.15.15-.28.44-.39Zm-.76-7v.13l.06.06h.13V1.92l-.13-.13Zm0,0v.13l.06.06h.13V1.92l-.13-.13Zm0,3.68h.19V5.4l-.07-.06Zm.25,1.34c0,.13-.09.2-.25.2l.12.12h.07L42.57,7v-.2ZM42.32,18l.14.14h.06l0-.12Zm.31-13.53v.13H43V4.44Zm.84.71c0,.14-.15.27-.45.38v.06l.52.14.18-.14-.18-.44Zm-.06-1.72-.33.44v.19l.27-.19h.06l.06.07a.68.68,0,0,1,.13-.44V3.43Zm-.2-.17.14.14h.12V3.26Zm0,0,.14.14h.12V3.26Zm.14,1.57h-.14c0,.06.09.13.26.18h.07Zm.12-.64v.06h.13V4.06Zm.89-1.57-.12.14h-.13c0-.1-.08-.22-.26-.36l.51-.62Zm0,0-.12.14h-.13c0-.1-.08-.22-.26-.36l.51-.62Zm-.51,5.81V9H44l.06-.19-.14-.38Zm0,0V9H44l.06-.19-.14-.38ZM44,8h-.13v.19h.25V8.16Z" transform="translate(0 0)"/><polygon class="cls-2" points="21.82 0.98 6.74 19.02 0.62 19.02 15.64 0.98 21.82 0.98"/><polygon class="cls-2" points="8.12 0.98 11.22 4.89 8.04 8.48 2.09 0.98 8.12 0.98"/><path class="cls-3" d="M5.33,4.9l.09-.27-.25-.07L5,4.76ZM6,2.33h.66l-.17-.21V2l.08-.33H6.49l-.07.07-1,.33v.07ZM8.7,13.7v.06l1,.28.07.06h.09l-.09-.28V13.7l.17-.17H9.29Zm2.9-3.47.16-.14V10H11.6l-.09.07v.14Zm2.29-5.51-.24-.08h-.08l.15.21ZM13.4,9.94l.18.15h.16V9.94Zm0-1.06.17.2L13.78,9l-.09-.27Zm-.54.38-.17-.14h-.08v.14Zm-1.31,3.27v.14h.09l.16-.14Zm7.26-8.94V3.47H18.5l-.16.12Zm-3.2-2-.09-.34h-.43v.07c.23,0,.35.07.35.2v.14l-.18.22v.07C15.34,1.89,15.46,1.77,15.57,1.55Zm-.35,4.09v.07l.18.22v.14c0,.13-.12.2-.35.2v.07h.43L15.57,6C15.46,5.78,15.34,5.66,15.22,5.64Zm.21,2.73V8.23c-.16,0-.24,0-.24-.14H15v.07Zm.44-6v.07h.18c0-.09.08-.14.24-.14V2.11ZM8,13c0-.1.09-.14.27-.14v-.07H8.1v-.09l.09-.33c.33-.08.5-.17.5-.27V12l-.32.08H8.29L8.19,12c0-.18-.06-.26-.17-.26v-.41H7.94l-.09.34-.4-.07H7.37l-.17.14v.07l.17.34h.25l.4.07v.13l-.24.21.07.42ZM14.38,2.83l-.06.42.23.21v.13l-.4.07H13.9L13.73,4v.07l.17.14H14l.4-.07.09.34h.08V4.07c.11,0,.17-.08.17-.26l.1-.09h.08l.32.09V3.72c0-.09-.17-.18-.5-.26l-.08-.33V3h.18V3c-.18,0-.27,0-.27-.14ZM13,11.14V11h-.26v.14Zm4.16-4.8v.14h.25V6.34ZM12,9.31v.15l.15.13V9.31Zm1.6-1.45.15-.14V7.65l-.07-.07-.18.14v.14ZM10,12.56v.14l.18.14.07-.07V12.7l-.16-.14Zm1.31-2.65c-.28-.16-.42-.34-.42-.55h-.15c0,.18-.12.27-.35.27V9.7C10.41,9.79,10.72,9.86,11.33,9.91ZM4.54,14v.07c.23,0,.35.08.35.26H5q0-.3.42-.54C4.84,13.85,4.54,13.92,4.54,14Zm6.55-3.25V11h.26v0l-.08-.21ZM7.69,4.7l.08-.21H7.69L7.6,4.43H7.37Zm10.62-.09h.24l.08-.06h.09l-.09-.2ZM7.19,11v.08h.09c0-.21.24-.32.66-.32v-.32C7.44,10.6,7.19,10.78,7.19,11Zm8.86-3.44.08-.07q0-.21.24-.21V7.13c-.38.16-.57.28-.57.35v.07Zm2.67-6.11v.07c0,.07.19.19.57.34V1.72q-.24,0-.24-.21L19,1.44ZM11,9.86l-.1.32h.27l.08-.32ZM9.32,6.11v0l.82.49V6.39a.74.74,0,0,1-.42-.63c-.09,0-.17.12-.25.35Zm7.87-1.45L17,4.59v.28h.24c0-.19.19-.32.58-.41V4.32h-.08ZM14.55,9.43V9.36l.1-.07H14.3v.07ZM11.22,6.57v.09a.69.69,0,0,1,.5.26h.09l.25-.19-.25-.35h-.09A.87.87,0,0,1,11.22,6.57Zm4.74-1,.16.15c.5-.14.77-.28.84-.42l-.08-.07A1.43,1.43,0,0,1,16,5.61ZM21,1.53h.25l.17-.15h-.25ZM10,14.83h.17l.15-.14h-.15Zm-2-.44v.13c-.16,0-.24,0-.24.14H8l.08-.2v-.07Zm9.66-12q0,.27-.15.27l-.27-.06-.08.06V2.9c.17,0,.26.07.26.21h.09c0-.23.13-.35.4-.35h.27A.92.92,0,0,0,17.68,2.42Z" transform="translate(0 0)"/><polygon class="cls-2" points="24.97 13.72 16.18 13.69 14.72 11.24 23.5 11.25 24.97 13.72"/><path class="cls-3" d="M18.18,12.7l0,0,.16.5v0l0,0,.06-.13,0,0h.1l-.16-.26Zm1.69,0,.08,0,0,0,0-.06h0l0,0ZM22,11.8l0-.12,0,0,0,.13Zm-1.62,1.53v.12l0,.07,0,0Zm.3-.37,0,.14.08.07.06-.12Zm-.24-.09v-.11l0,0,0,0Zm-1.25.57,0,0,0,0,.08,0Zm4.3-.07,0,0-.07-.11-.07,0Zm-.18-2,.08-.14-.1-.17,0,0c.05.09.06.16,0,.2l0,0h-.1l0,0S23.22,11.44,23.31,11.41Zm-1.26,1.22,0,0,0,.15,0,0s-.08,0-.14-.08l0,0,.11.18.11-.08A.35.35,0,0,0,22.05,12.63Zm-.73,1,0,0a.13.13,0,0,1,0-.14l0-.07,0,0Zm1.85-1.83,0,0,0,.08s.06,0,.1,0l0,0Zm-4.94.4s.06,0,.1.06l0,0,0-.07,0,0,.12-.08c.1.11.16.14.19.11l0,0-.11-.1,0,0v-.06c.05-.06.06-.11,0-.16l.12-.13,0,0-.12.08-.07-.18,0,0-.08,0,0,0-.06.18.06.1.07.18,0,0-.12,0-.1.17Zm4.43-.82-.13.11v.16l0,0-.12-.13-.06-.1-.14.05,0,0v.11l0,0,.12.14-.08.15,0,0,.12-.13s.06,0,.11,0h.05l0,0,0,.16,0,0s0-.13-.05-.29l.08-.14,0,0,.05.07,0,0c-.05-.07-.05-.12,0-.15Zm-2.73,2.18,0-.05-.06-.1,0,0Zm2.37.07,0,0,.06.1,0,0Zm-2.07-1.06-.05,0v.1l.08-.09Zm.79.15.08,0,0,0v0l-.08,0,0,0Zm-2.2.14,0,.05V13h0l0,0v-.11Zm1.08-.36a.43.43,0,0,1,.06-.34l0-.06c-.05.06-.1,0-.16-.05l0,0S19.77,12.24,19.9,12.49Zm-2.81-1.34,0,0a.18.18,0,0,1,0,.23l0,.06c.06-.07.14-.07.25,0C17.21,11.22,17.12,11.12,17.09,11.15Zm2.5,1.53-.07.09.06.11,0,0,0-.1Zm3.5.84.06.1h0l0,0,0-.11ZM18.6,11.2l0,0,0,0c.06-.06.15,0,.25.16l.09-.1C18.77,11.17,18.66,11.13,18.6,11.2Zm3.1,2.39h0s.08,0,.12,0l0-.05c-.14-.1-.22-.13-.24-.11l0,0Zm2.4-1,0,0s0,.14,0,.34l0-.05a.12.12,0,0,1,0-.16v-.06Zm-4.27-.3-.12.07.06.11.12-.08Zm3,.76,0-.12-.08.09.06.1c.05-.06.14,0,.25.1l0,0,0,0Zm-2,.53,0,0h.05l-.09-.14,0,0Zm0-2.27,0,0a.51.51,0,0,1,0,.29l0,0,.12,0,0-.21,0,0A.31.31,0,0,1,20.83,11.35Zm1.41,1.56V13c.15.15.26.22.32.2v-.06A.51.51,0,0,1,22.24,12.91Zm2.38.67.06.1.09,0-.06-.1Zm-6.46,0,0,.06.08,0,0-.06Zm-.34-.93,0,0c0-.06-.07-.08-.09,0l0,.1.08,0,0,0Zm5.75-.12c-.05.07-.09.08-.12,0l0-.13h0l-.06.07a.13.13,0,0,1,0,.17l0,0c.07-.07.13-.06.2,0l.06.1A.59.59,0,0,0,23.57,12.54Z" transform="translate(0 0)"/></svg>